<mxfile host="app.diagrams.net" agent="Mozilla/5.0 (Windows NT 10.0; Win64; x64) AppleWebKit/537.36 (KHTML, like Gecko) Chrome/136.0.0.0 Safari/537.36 Edg/136.0.0.0" version="27.0.9">
  <diagram name="PÃ¡gina-1" id="JCu2glxPUYvqMz7zGEtx">
    <mxGraphModel dx="2007" dy="1102" grid="1" gridSize="10" guides="1" tooltips="1" connect="1" arrows="1" fold="1" page="1" pageScale="1" pageWidth="120" pageHeight="160" math="0" shadow="0">
      <root>
        <mxCell id="0" />
        <mxCell id="1" parent="0" />
        <mxCell id="vUH7QXVTozjBo3GLzVUR-5" value="ArtController" style="html=1;overflow=block;blockSpacing=1;swimlane;childLayout=stackLayout;horizontal=1;horizontalStack=0;resizeParent=1;resizeParentMax=0;resizeLast=0;collapsible=0;marginBottom=0;swimlaneFillColor=#ffffff;startSize=25;whiteSpace=wrap;fontSize=13.5;fontColor=default;fontStyle=1;align=center;spacing=0;strokeOpacity=100;fillOpacity=100;fillColor=#ffffff;strokeWidth=1.5;" vertex="1" parent="1">
          <mxGeometry x="349" y="50" width="270" height="103.5" as="geometry" />
        </mxCell>
        <mxCell id="vUH7QXVTozjBo3GLzVUR-6" value="&lt;div style=&quot;display: flex; justify-content: center; text-align: center; align-items: baseline; font-size: 0; line-height: 1.25;margin-top: -2px;&quot;&gt;&lt;span&gt;&lt;span style=&quot;font-size:13.5px;&quot;&gt;getBasicArt(): Art&#xa;&lt;/span&gt;&lt;/span&gt;&lt;/div&gt;&lt;div style=&quot;display: flex; justify-content: center; text-align: center; align-items: baseline; font-size: 0; line-height: 1.25;margin-top: -2px;&quot;&gt;&lt;span&gt;&lt;span style=&quot;font-size:13.5px;&quot;&gt;getFullArt(): Art&lt;/span&gt;&lt;/span&gt;&lt;/div&gt;" style="part=1;html=1;resizeHeight=0;strokeColor=none;fillColor=none;verticalAlign=middle;spacingLeft=4;spacingRight=4;overflow=hidden;rotatable=0;points=[[0,0.5],[1,0.5]];portConstraint=eastwest;swimlaneFillColor=#ffffff;strokeOpacity=100;fillOpacity=100;whiteSpace=wrap;fontSize=13.5;align=center;" vertex="1" parent="vUH7QXVTozjBo3GLzVUR-5">
          <mxGeometry y="25" width="270" height="78.5" as="geometry" />
        </mxCell>
        <mxCell id="vUH7QXVTozjBo3GLzVUR-7" value="ArtService" style="html=1;overflow=block;blockSpacing=1;swimlane;childLayout=stackLayout;horizontal=1;horizontalStack=0;resizeParent=1;resizeParentMax=0;resizeLast=0;collapsible=0;marginBottom=0;swimlaneFillColor=#ffffff;startSize=25;whiteSpace=wrap;fontSize=13.5;fontStyle=1;align=center;spacing=0;strokeOpacity=100;fillOpacity=100;fillColor=#ffffff;strokeWidth=1.5;" vertex="1" parent="1">
          <mxGeometry x="534" y="245" width="270" height="103.5" as="geometry" />
        </mxCell>
        <mxCell id="vUH7QXVTozjBo3GLzVUR-8" value="&lt;div style=&quot;display: flex; justify-content: center; text-align: center; align-items: baseline; font-size: 0; line-height: 1.25;margin-top: -2px;&quot;&gt;&lt;span&gt;&lt;span style=&quot;font-size:13.5px;&quot;&gt;+createBasicArt(): Art&#xa;&lt;/span&gt;&lt;/span&gt;&lt;/div&gt;&lt;div style=&quot;display: flex; justify-content: center; text-align: center; align-items: baseline; font-size: 0; line-height: 1.25;margin-top: -2px;&quot;&gt;&lt;span&gt;&lt;span style=&quot;font-size:13.5px;&quot;&gt;+createFullArt(): Art&lt;/span&gt;&lt;/span&gt;&lt;/div&gt;" style="part=1;html=1;resizeHeight=0;strokeColor=none;fillColor=none;verticalAlign=middle;spacingLeft=4;spacingRight=4;overflow=hidden;rotatable=0;points=[[0,0.5],[1,0.5]];portConstraint=eastwest;swimlaneFillColor=#ffffff;strokeOpacity=100;fillOpacity=100;whiteSpace=wrap;fontSize=13.5;align=center;" vertex="1" parent="vUH7QXVTozjBo3GLzVUR-7">
          <mxGeometry y="25" width="270" height="78.5" as="geometry" />
        </mxCell>
        <mxCell id="vUH7QXVTozjBo3GLzVUR-9" value="" style="html=1;jettySize=18;whiteSpace=wrap;fontSize=13;strokeColor=#333333;strokeOpacity=100;strokeWidth=1.5;rounded=1;arcSize=24;edgeStyle=orthogonalEdgeStyle;startArrow=none;endArrow=block;endFill=1;exitX=0.5;exitY=1.008;exitPerimeter=0;entryX=0.5;entryY=-0.008;entryPerimeter=0;lucidId=wCKi20k9WDwj;" edge="1" parent="1" source="vUH7QXVTozjBo3GLzVUR-5" target="vUH7QXVTozjBo3GLzVUR-7">
          <mxGeometry width="100" height="100" relative="1" as="geometry">
            <Array as="points" />
          </mxGeometry>
        </mxCell>
        <mxCell id="vUH7QXVTozjBo3GLzVUR-10" value="requests" style="text;html=1;resizable=0;labelBackgroundColor=default;align=center;verticalAlign=middle;fontColor=default;fontSize=13.5;" vertex="1" parent="vUH7QXVTozjBo3GLzVUR-9">
          <mxGeometry relative="1" as="geometry" />
        </mxCell>
        <mxCell id="vUH7QXVTozjBo3GLzVUR-11" value="ArtDirector" style="html=1;overflow=block;blockSpacing=1;swimlane;childLayout=stackLayout;horizontal=1;horizontalStack=0;resizeParent=1;resizeParentMax=0;resizeLast=0;collapsible=0;marginBottom=0;swimlaneFillColor=#ffffff;startSize=25;whiteSpace=wrap;fontSize=13.5;fontColor=default;fontStyle=1;align=center;spacing=0;strokeOpacity=100;fillOpacity=100;fillColor=#ffffff;strokeWidth=1.5;" vertex="1" parent="1">
          <mxGeometry x="105" y="290" width="270" height="157.25" as="geometry" />
        </mxCell>
        <mxCell id="vUH7QXVTozjBo3GLzVUR-12" value="builder: ArtBuilderInterface" style="part=1;html=1;resizeHeight=0;strokeColor=none;fillColor=none;verticalAlign=middle;spacingLeft=4;spacingRight=4;overflow=hidden;rotatable=0;points=[[0,0.5],[1,0.5]];portConstraint=eastwest;swimlaneFillColor=#ffffff;strokeOpacity=100;fillOpacity=100;whiteSpace=wrap;fontSize=13.5;align=center;" vertex="1" parent="vUH7QXVTozjBo3GLzVUR-11">
          <mxGeometry y="25" width="270" height="56" as="geometry" />
        </mxCell>
        <mxCell id="vUH7QXVTozjBo3GLzVUR-13" value="" style="line;strokeWidth=1;fillColor=none;align=left;verticalAlign=middle;spacingTop=-1;spacingLeft=3;spacingRight=3;rotatable=0;labelPosition=right;points=[];portConstraint=eastwest;" vertex="1" parent="vUH7QXVTozjBo3GLzVUR-11">
          <mxGeometry y="81" width="270" height="8" as="geometry" />
        </mxCell>
        <mxCell id="vUH7QXVTozjBo3GLzVUR-14" value="&lt;div style=&quot;display: flex; justify-content: center; text-align: center; align-items: baseline; font-size: 0; line-height: 1.25;margin-top: -2px;&quot;&gt;&lt;span&gt;&lt;span style=&quot;font-size:13.5px;&quot;&gt;+constructBasicArt(...): Art&#xa;&lt;/span&gt;&lt;/span&gt;&lt;/div&gt;&lt;div style=&quot;display: flex; justify-content: center; text-align: center; align-items: baseline; font-size: 0; line-height: 1.25;margin-top: -2px;&quot;&gt;&lt;span&gt;&lt;span style=&quot;font-size:13.5px;&quot;&gt;+constructFullArt(...): Art&lt;/span&gt;&lt;/span&gt;&lt;/div&gt;" style="part=1;html=1;resizeHeight=0;strokeColor=none;fillColor=none;verticalAlign=middle;spacingLeft=4;spacingRight=4;overflow=hidden;rotatable=0;points=[[0,0.5],[1,0.5]];portConstraint=eastwest;swimlaneFillColor=#ffffff;strokeOpacity=100;fillOpacity=100;whiteSpace=wrap;fontSize=13.5;align=center;" vertex="1" parent="vUH7QXVTozjBo3GLzVUR-11">
          <mxGeometry y="89" width="270" height="68.25" as="geometry" />
        </mxCell>
        <mxCell id="vUH7QXVTozjBo3GLzVUR-15" value="" style="html=1;jettySize=18;whiteSpace=wrap;fontSize=13;strokeColor=#333333;strokeOpacity=100;strokeWidth=1.5;rounded=1;arcSize=24;edgeStyle=orthogonalEdgeStyle;startArrow=none;endArrow=block;endFill=1;exitX=0.5;exitY=1.008;exitPerimeter=0;entryX=1.003;entryY=0.147;entryPerimeter=0;lucidId=-CKiFqV2wE~X;" edge="1" parent="1" source="vUH7QXVTozjBo3GLzVUR-7" target="vUH7QXVTozjBo3GLzVUR-11">
          <mxGeometry width="100" height="100" relative="1" as="geometry">
            <Array as="points" />
          </mxGeometry>
        </mxCell>
        <mxCell id="vUH7QXVTozjBo3GLzVUR-16" value="orquestrate" style="text;html=1;resizable=0;labelBackgroundColor=default;align=center;verticalAlign=middle;fontColor=default;fontSize=13.5;" vertex="1" parent="vUH7QXVTozjBo3GLzVUR-15">
          <mxGeometry x="0.22129545198973521" relative="1" as="geometry" />
        </mxCell>
        <mxCell id="vUH7QXVTozjBo3GLzVUR-17" value="ArtBuilderInterface" style="html=1;overflow=block;blockSpacing=1;swimlane;childLayout=stackLayout;horizontal=1;horizontalStack=0;resizeParent=1;resizeParentMax=0;resizeLast=0;collapsible=0;marginBottom=0;swimlaneFillColor=#ffffff;startSize=25;whiteSpace=wrap;fontSize=13.5;fontStyle=1;align=center;spacing=0;strokeOpacity=100;fillOpacity=100;fillColor=#ffffff;strokeWidth=1.5;" vertex="1" parent="1">
          <mxGeometry x="105" y="515" width="270" height="140" as="geometry" />
        </mxCell>
        <mxCell id="vUH7QXVTozjBo3GLzVUR-18" value="&lt;div style=&quot;display: flex; justify-content: flex-start; text-align: left; align-items: baseline; font-size: 0; line-height: 1.25;margin-top: -2px;&quot;&gt;&lt;span&gt;&lt;span style=&quot;font-size:13.5px;&quot;&gt;+setTitle(title: string): this&#xa;&lt;/span&gt;&lt;/span&gt;&lt;/div&gt;&lt;div style=&quot;display: flex; justify-content: flex-start; text-align: left; align-items: baseline; font-size: 0; line-height: 1.25;margin-top: -2px;&quot;&gt;&lt;span&gt;&lt;span style=&quot;font-size:13.5px;&quot;&gt;+setImage(imageUrl: string): this&#xa;&lt;/span&gt;&lt;/span&gt;&lt;/div&gt;&lt;div style=&quot;display: flex; justify-content: flex-start; text-align: left; align-items: baseline; font-size: 0; line-height: 1.25;margin-top: -2px;&quot;&gt;&lt;span&gt;&lt;span style=&quot;font-size:13.5px;&quot;&gt;+setTechnique(technique: string): this&#xa;&lt;/span&gt;&lt;/span&gt;&lt;/div&gt;&lt;div style=&quot;display: flex; justify-content: flex-start; text-align: left; align-items: baseline; font-size: 0; line-height: 1.25;margin-top: -2px;&quot;&gt;&lt;span&gt;&lt;span style=&quot;font-size:13.5px;&quot;&gt;+setDescription(description: string): this&#xa;&lt;/span&gt;&lt;/span&gt;&lt;/div&gt;&lt;div style=&quot;display: flex; justify-content: flex-start; text-align: left; align-items: baseline; font-size: 0; line-height: 1.25;margin-top: -2px;&quot;&gt;&lt;span&gt;&lt;span style=&quot;font-size:13.5px;&quot;&gt;+setAuthor(author: string): this&#xa;&lt;/span&gt;&lt;/span&gt;&lt;/div&gt;&lt;div style=&quot;display: flex; justify-content: flex-start; text-align: left; align-items: baseline; font-size: 0; line-height: 1.25;margin-top: -2px;&quot;&gt;&lt;span&gt;&lt;span style=&quot;font-size:13.5px;&quot;&gt;+build(): Art&lt;/span&gt;&lt;/span&gt;&lt;/div&gt;" style="part=1;html=1;resizeHeight=0;strokeColor=none;fillColor=none;verticalAlign=middle;spacingLeft=4;spacingRight=4;overflow=hidden;rotatable=0;points=[[0,0.5],[1,0.5]];portConstraint=eastwest;swimlaneFillColor=#ffffff;strokeOpacity=100;fillOpacity=100;whiteSpace=wrap;fontSize=13.5;align=left;" vertex="1" parent="vUH7QXVTozjBo3GLzVUR-17">
          <mxGeometry y="25" width="270" height="115" as="geometry" />
        </mxCell>
        <mxCell id="vUH7QXVTozjBo3GLzVUR-19" value="Art" style="html=1;overflow=block;blockSpacing=1;swimlane;childLayout=stackLayout;horizontal=1;horizontalStack=0;resizeParent=1;resizeParentMax=0;resizeLast=0;collapsible=0;fontStyle=0;marginBottom=0;swimlaneFillColor=#ffffff;startSize=25;whiteSpace=wrap;fontSize=13.5;align=center;spacing=0;strokeOpacity=100;fillOpacity=100;fillColor=#ffffff;strokeWidth=1.5;" vertex="1" parent="1">
          <mxGeometry x="534" y="515" width="270" height="160" as="geometry" />
        </mxCell>
        <mxCell id="vUH7QXVTozjBo3GLzVUR-20" value="&lt;div style=&quot;display: flex; justify-content: flex-start; text-align: left; align-items: baseline; font-size: 0; line-height: 1.25;margin-top: -2px;&quot;&gt;&lt;span&gt;&lt;span style=&quot;font-size:13.5px;&quot;&gt;+title: string&#xa;&lt;/span&gt;&lt;/span&gt;&lt;/div&gt;&lt;div style=&quot;display: flex; justify-content: flex-start; text-align: left; align-items: baseline; font-size: 0; line-height: 1.25;margin-top: -2px;&quot;&gt;&lt;span&gt;&lt;span style=&quot;font-size:13.5px;&quot;&gt;+image: string&#xa;&lt;/span&gt;&lt;/span&gt;&lt;/div&gt;&lt;div style=&quot;display: flex; justify-content: flex-start; text-align: left; align-items: baseline; font-size: 0; line-height: 1.25;margin-top: -2px;&quot;&gt;&lt;span&gt;&lt;span style=&quot;font-size:13.5px;&quot;&gt;+technique: string&#xa;&lt;/span&gt;&lt;/span&gt;&lt;/div&gt;&lt;div style=&quot;display: flex; justify-content: flex-start; text-align: left; align-items: baseline; font-size: 0; line-height: 1.25;margin-top: -2px;&quot;&gt;&lt;span&gt;&lt;span style=&quot;font-size:13.5px;&quot;&gt;+description: string&#xa;&lt;/span&gt;&lt;/span&gt;&lt;/div&gt;&lt;div style=&quot;display: flex; justify-content: flex-start; text-align: left; align-items: baseline; font-size: 0; line-height: 1.25;margin-top: -2px;&quot;&gt;&lt;span&gt;&lt;span style=&quot;font-size:13.5px;&quot;&gt;+author: string&lt;/span&gt;&lt;/span&gt;&lt;/div&gt;" style="part=1;html=1;resizeHeight=0;strokeColor=none;fillColor=none;verticalAlign=middle;spacingLeft=4;spacingRight=4;overflow=hidden;rotatable=0;points=[[0,0.5],[1,0.5]];portConstraint=eastwest;swimlaneFillColor=#ffffff;strokeOpacity=100;fillOpacity=100;whiteSpace=wrap;fontSize=13.5;align=left;" vertex="1" parent="vUH7QXVTozjBo3GLzVUR-19">
          <mxGeometry y="25" width="270" height="86" as="geometry" />
        </mxCell>
        <mxCell id="vUH7QXVTozjBo3GLzVUR-21" value="" style="line;strokeWidth=1;fillColor=none;align=left;verticalAlign=middle;spacingTop=-1;spacingLeft=3;spacingRight=3;rotatable=0;labelPosition=right;points=[];portConstraint=eastwest;" vertex="1" parent="vUH7QXVTozjBo3GLzVUR-19">
          <mxGeometry y="111" width="270" height="8" as="geometry" />
        </mxCell>
        <mxCell id="vUH7QXVTozjBo3GLzVUR-22" value="+constructor(partial: Partial)" style="part=1;resizeHeight=0;strokeColor=none;fillColor=none;align=left;verticalAlign=middle;spacingLeft=4;spacingRight=4;rotatable=0;points=[[0,0.5],[1,0.5]];portConstraint=eastwest;swimlaneFillColor=#ffffff;strokeOpacity=100;fillOpacity=100;whiteSpace=wrap;overflow=block;blockSpacing=1;html=1;fontSize=13;" vertex="1" parent="vUH7QXVTozjBo3GLzVUR-19">
          <mxGeometry y="119" width="270" height="41" as="geometry" />
        </mxCell>
        <mxCell id="vUH7QXVTozjBo3GLzVUR-23" value="" style="html=1;jettySize=18;whiteSpace=wrap;fontSize=13;strokeColor=#333333;strokeOpacity=100;strokeWidth=1.5;rounded=1;arcSize=24;edgeStyle=orthogonalEdgeStyle;startArrow=none;endArrow=block;endFill=1;exitX=1.003;exitY=0.894;exitPerimeter=0;entryX=0.5;entryY=-0.004;entryPerimeter=0;lucidId=AIKidQiFsAOX;" edge="1" parent="1" source="vUH7QXVTozjBo3GLzVUR-11" target="vUH7QXVTozjBo3GLzVUR-19">
          <mxGeometry width="100" height="100" relative="1" as="geometry">
            <Array as="points" />
          </mxGeometry>
        </mxCell>
        <mxCell id="vUH7QXVTozjBo3GLzVUR-24" value="builds" style="text;html=1;resizable=0;labelBackgroundColor=default;align=center;verticalAlign=middle;fontColor=default;fontSize=13.5;" vertex="1" parent="vUH7QXVTozjBo3GLzVUR-23">
          <mxGeometry x="-0.543280487568839" relative="1" as="geometry" />
        </mxCell>
        <mxCell id="vUH7QXVTozjBo3GLzVUR-25" value="DigitalArtBuilder" style="html=1;overflow=block;blockSpacing=1;swimlane;childLayout=stackLayout;horizontal=1;horizontalStack=0;resizeParent=1;resizeParentMax=0;resizeLast=0;collapsible=0;fontStyle=0;marginBottom=0;swimlaneFillColor=#ffffff;startSize=25;whiteSpace=wrap;fontSize=13.5;fontColor=default;align=center;spacing=0;strokeOpacity=100;fillOpacity=100;fillColor=#ffffff;strokeWidth=1.5;" vertex="1" parent="1">
          <mxGeometry x="315" y="720" width="285" height="170" as="geometry" />
        </mxCell>
        <mxCell id="vUH7QXVTozjBo3GLzVUR-26" value="&lt;div style=&quot;display: flex; justify-content: flex-start; text-align: left; align-items: baseline; font-size: 0; line-height: 1.25;margin-top: -2px;&quot;&gt;&lt;span&gt;&lt;span style=&quot;font-size:13.5px;color:#000000;&quot;&gt;-art: Partial &amp;lt;Ar&lt;/span&gt;&lt;span style=&quot;font-size:13.5px;&quot;&gt;t&amp;gt;&lt;/span&gt;&lt;/span&gt;&lt;/div&gt;" style="part=1;html=1;resizeHeight=0;strokeColor=none;fillColor=none;verticalAlign=middle;spacingLeft=4;spacingRight=4;overflow=hidden;rotatable=0;points=[[0,0.5],[1,0.5]];portConstraint=eastwest;swimlaneFillColor=#ffffff;strokeOpacity=100;fillOpacity=100;whiteSpace=wrap;fontSize=13.5;fontColor=default;align=left;" vertex="1" parent="vUH7QXVTozjBo3GLzVUR-25">
          <mxGeometry y="25" width="285" height="35" as="geometry" />
        </mxCell>
        <mxCell id="vUH7QXVTozjBo3GLzVUR-27" value="" style="line;strokeWidth=1;fillColor=none;align=left;verticalAlign=middle;spacingTop=-1;spacingLeft=3;spacingRight=3;rotatable=0;labelPosition=right;points=[];portConstraint=eastwest;" vertex="1" parent="vUH7QXVTozjBo3GLzVUR-25">
          <mxGeometry y="60" width="285" height="8" as="geometry" />
        </mxCell>
        <mxCell id="vUH7QXVTozjBo3GLzVUR-28" value="&lt;div style=&quot;display: flex; justify-content: flex-start; text-align: left; align-items: baseline; font-size: 0; line-height: 1.25;margin-top: -2px;&quot;&gt;&lt;span&gt;&lt;span style=&quot;font-size:13.5px;color:#000000;&quot;&gt;+setTitle(title: string): this&#xa;&lt;/span&gt;&lt;/span&gt;&lt;/div&gt;&lt;div style=&quot;display: flex; justify-content: flex-start; text-align: left; align-items: baseline; font-size: 0; line-height: 1.25;margin-top: -2px;&quot;&gt;&lt;span&gt;&lt;span style=&quot;font-size:13.5px;color:#000000;&quot;&gt;+setImage(imageUrl: string): this&#xa;&lt;/span&gt;&lt;/span&gt;&lt;/div&gt;&lt;div style=&quot;display: flex; justify-content: flex-start; text-align: left; align-items: baseline; font-size: 0; line-height: 1.25;margin-top: -2px;&quot;&gt;&lt;span&gt;&lt;span style=&quot;font-size:13.5px;color:#000000;&quot;&gt;+setTechnique(technique: string): this&#xa;&lt;/span&gt;&lt;/span&gt;&lt;/div&gt;&lt;div style=&quot;display: flex; justify-content: flex-start; text-align: left; align-items: baseline; font-size: 0; line-height: 1.25;margin-top: -2px;&quot;&gt;&lt;span&gt;&lt;span style=&quot;font-size:13.5px;color:#000000;&quot;&gt;+setDescription(description: string): this&#xa;&lt;/span&gt;&lt;/span&gt;&lt;/div&gt;&lt;div style=&quot;display: flex; justify-content: flex-start; text-align: left; align-items: baseline; font-size: 0; line-height: 1.25;margin-top: -2px;&quot;&gt;&lt;span&gt;&lt;span style=&quot;font-size:13.5px;color:#000000;&quot;&gt;+setAuthor(author: string): this&#xa;&lt;/span&gt;&lt;/span&gt;&lt;/div&gt;&lt;div style=&quot;display: flex; justify-content: flex-start; text-align: left; align-items: baseline; font-size: 0; line-height: 1.25;margin-top: -2px;&quot;&gt;&lt;span&gt;&lt;span style=&quot;font-size:13.5px;color:#000000;&quot;&gt;+build(): Art&lt;/span&gt;&lt;/span&gt;&lt;/div&gt;" style="part=1;resizeHeight=0;strokeColor=none;fillColor=none;align=left;verticalAlign=middle;spacingLeft=4;spacingRight=4;rotatable=0;points=[[0,0.5],[1,0.5]];portConstraint=eastwest;swimlaneFillColor=#ffffff;strokeOpacity=100;fillOpacity=100;whiteSpace=wrap;overflow=block;blockSpacing=1;html=1;fontSize=13;" vertex="1" parent="vUH7QXVTozjBo3GLzVUR-25">
          <mxGeometry y="68" width="285" height="102" as="geometry" />
        </mxCell>
        <mxCell id="vUH7QXVTozjBo3GLzVUR-29" value="" style="html=1;jettySize=18;whiteSpace=wrap;fontSize=13;strokeColor=#333333;strokeOpacity=100;dashed=1;fixDash=1;dashPattern=8 8;strokeWidth=1.5;rounded=1;arcSize=24;edgeStyle=orthogonalEdgeStyle;startArrow=none;endArrow=block;endFill=0;exitX=0.107;exitY=-0.003;exitPerimeter=0;entryX=0.891;entryY=1.004;entryPerimeter=0;lucidId=2LKi0OfWeBT8;" edge="1" parent="1" source="vUH7QXVTozjBo3GLzVUR-25" target="vUH7QXVTozjBo3GLzVUR-17">
          <mxGeometry width="100" height="100" relative="1" as="geometry">
            <Array as="points" />
          </mxGeometry>
        </mxCell>
        <mxCell id="vUH7QXVTozjBo3GLzVUR-30" value="Implements" style="text;html=1;resizable=0;labelBackgroundColor=default;align=center;verticalAlign=middle;fontSize=13.5;" vertex="1" parent="vUH7QXVTozjBo3GLzVUR-29">
          <mxGeometry x="-0.19791026672623435" relative="1" as="geometry" />
        </mxCell>
        <mxCell id="vUH7QXVTozjBo3GLzVUR-31" value="&lt;div style=&quot;display: flex; justify-content: center; text-align: center; align-items: baseline; font-size: 0; line-height: 1.25;margin-top: -2px;&quot;&gt;&lt;span&gt;&lt;span style=&quot;font-size:13px;&quot;&gt;O diretor encapsula a lÃ³gica de sequÃªncia de etapas,&lt;/span&gt;&lt;span style=&quot;font-size:13px;color:#000000;&quot;&gt; &lt;/span&gt;&lt;span style=&quot;font-size:13px;&quot;&gt;permitindo reutilizaÃ§Ã£o e variaÃ§Ãµes futuras (ex:&lt;/span&gt;&lt;span style=&quot;font-size:13px;&quot;&gt; &lt;/span&gt;&lt;span style=&quot;font-size:13px;&quot;&gt;constructFullArt).&lt;/span&gt;&lt;/span&gt;&lt;/div&gt;" style="html=1;overflow=block;blockSpacing=1;whiteSpace=wrap;shadow=1;fontSize=13;spacing=9;verticalAlign=middle;strokeColor=none;strokeOpacity=100;fillColor=#ffe342;strokeWidth=0;lucidId=LPKiC8h-fh_W;" vertex="1" parent="1">
          <mxGeometry x="40" y="130" width="248" height="137" as="geometry" />
        </mxCell>
        <mxCell id="vUH7QXVTozjBo3GLzVUR-33" value="&lt;div style=&quot;display: flex; justify-content: center; text-align: center; align-items: baseline; font-size: 0; line-height: 1.25;margin-top: -2px;&quot;&gt;&lt;span&gt;&lt;span style=&quot;font-size:13px;&quot;&gt;  Camada de serviÃ§o do NestJS,&lt;/span&gt;&lt;span style=&quot;font-size:13px;&quot;&gt; &lt;/span&gt;&lt;span style=&quot;font-size:13px;&quot;&gt;coordena&lt;/span&gt;&lt;span style=&quot;font-size:13px;&quot;&gt; &lt;/span&gt;&lt;span style=&quot;font-size:13px;&quot;&gt;builder e director, mas delega a&lt;/span&gt;&lt;span style=&quot;font-size:13px;&quot;&gt; &lt;/span&gt;&lt;span style=&quot;font-size:13px;&quot;&gt;lÃ³gica&lt;/span&gt;&lt;span style=&quot;font-size:13px;&quot;&gt; &lt;/span&gt;&lt;span style=&quot;font-size:13px;&quot;&gt;de construÃ§Ã£o ao padrÃ£o Builder.&lt;/span&gt;&lt;/span&gt;&lt;/div&gt;" style="html=1;overflow=block;blockSpacing=1;whiteSpace=wrap;shadow=1;fontSize=13;spacing=9;verticalAlign=middle;strokeColor=none;strokeOpacity=100;fillColor=#ffe342;strokeWidth=0;lucidId=4RKiYRD5-at-;" vertex="1" parent="1">
          <mxGeometry x="730" y="110" width="218" height="120" as="geometry" />
        </mxCell>
        <mxCell id="vUH7QXVTozjBo3GLzVUR-34" value="" style="html=1;jettySize=18;whiteSpace=wrap;fontSize=13;strokeColor=#333333;strokeOpacity=100;strokeWidth=0.8;rounded=1;arcSize=24;edgeStyle=orthogonalEdgeStyle;startArrow=none;endArrow=diamond;endFill=0;exitX=0.5;exitY=0;exitPerimeter=0;entryX=0.5;entryY=1;entryPerimeter=0;lucidId=NSKif__Zsr6B;" edge="1" parent="1" source="vUH7QXVTozjBo3GLzVUR-17" target="vUH7QXVTozjBo3GLzVUR-11">
          <mxGeometry width="100" height="100" relative="1" as="geometry">
            <Array as="points" />
          </mxGeometry>
        </mxCell>
        <mxCell id="vUH7QXVTozjBo3GLzVUR-35" value="uses" style="text;html=1;resizable=0;labelBackgroundColor=default;align=center;verticalAlign=middle;fontColor=default;fontSize=13.5;" vertex="1" parent="vUH7QXVTozjBo3GLzVUR-34">
          <mxGeometry x="0.1995029858442019" relative="1" as="geometry" />
        </mxCell>
        <mxCell id="vUH7QXVTozjBo3GLzVUR-36" value="" style="html=1;jettySize=18;whiteSpace=wrap;fontSize=13;strokeColor=#333333;strokeOpacity=100;strokeWidth=1.5;rounded=1;arcSize=24;edgeStyle=orthogonalEdgeStyle;startArrow=none;endArrow=block;endFill=1;exitX=1;exitY=0.8;exitPerimeter=0;entryX=1;entryY=0.5;entryPerimeter=0;lucidId=ITKibx0flDJr;" edge="1" parent="1" source="vUH7QXVTozjBo3GLzVUR-7" target="vUH7QXVTozjBo3GLzVUR-25">
          <mxGeometry width="100" height="100" relative="1" as="geometry">
            <Array as="points" />
          </mxGeometry>
        </mxCell>
        <mxCell id="vUH7QXVTozjBo3GLzVUR-37" value="instantiates" style="text;html=1;resizable=0;labelBackgroundColor=default;align=center;verticalAlign=middle;fontColor=default;fontSize=13.5;" vertex="1" parent="vUH7QXVTozjBo3GLzVUR-36">
          <mxGeometry x="-0.5961706548951113" relative="1" as="geometry">
            <mxPoint as="offset" />
          </mxGeometry>
        </mxCell>
        <mxCell id="vUH7QXVTozjBo3GLzVUR-38" value="&lt;div style=&quot;display: flex; justify-content: center; text-align: center; align-items: baseline; font-size: 0; line-height: 1.25;margin-top: -2px;&quot;&gt;&lt;span&gt;&lt;span style=&quot;font-size:13px;&quot;&gt; Implementa regras especÃ­ficas (ex: prefix&lt;/span&gt;&lt;span style=&quot;font-size:13px;&quot;&gt;o &lt;/span&gt;&lt;span style=&quot;font-size:13px;&quot;&gt; &quot;Digital:&quot; em tÃ©cnicas). Pode ser estendido&#xa;&lt;/span&gt;&lt;/span&gt;&lt;/div&gt;&lt;div style=&quot;display: flex; justify-content: center; text-align: center; align-items: baseline; font-size: 0; line-height: 1.25;margin-top: -2px;&quot;&gt;&lt;span&gt;&lt;span style=&quot;font-size:13px;&quot;&gt;  para builders alternativos (ex: PhysicalArtBuilder).&lt;/span&gt;&lt;/span&gt;&lt;/div&gt;" style="html=1;overflow=block;blockSpacing=1;whiteSpace=wrap;shadow=1;fontSize=13;spacing=9;verticalAlign=middle;strokeColor=none;strokeOpacity=100;fillColor=#ffe342;strokeWidth=0;lucidId=rRKir.KVbRpn;" vertex="1" parent="1">
          <mxGeometry x="40" y="780" width="248" height="137" as="geometry" />
        </mxCell>
      </root>
    </mxGraphModel>
  </diagram>
</mxfile>
